Coordinates
version=1
nRows=9
nColumns=24
inDegrees=yes

Units are S.I. units (second, meters, Newtons, ...)
Angles are in degrees.

endheader
time	pelvis_tilt	pelvis_list	pelvis_rotation	pelvis_tx	pelvis_ty	pelvis_tz	hip_flexion_r	hip_adduction_r	hip_rotation_r	knee_angle_r	ankle_angle_r	subtalar_angle_r	mtp_angle_r	hip_flexion_l	hip_adduction_l	hip_rotation_l	knee_angle_l	ankle_angle_l	subtalar_angle_l	mtp_angle_l	lumbar_extension	lumbar_bending	lumbar_rotation
      1.20500000	     24.40829572	     -2.46884952	      2.47878479	     -0.55687710	      0.83972432	     -0.06929708	    -44.16326538	      8.06513112	    -17.03090933	     -2.53516360	     27.79102862	     18.68161422	     38.21259240	     -5.89817178	      0.47045060	    -15.34959929	     -0.72233613	     17.67679957	     12.52722315	     48.47974683	    -38.56126107	      2.87142327	     -8.14551086
      1.21000000	     24.49989766	     -2.54140951	      2.36441823	     -0.55078083	      0.83941464	     -0.06910191	    -44.34902150	      7.90355565	    -16.75321189	     -3.43121769	     27.84788890	     18.76162439	     38.29836410	     -5.98609078	      0.41701630	    -15.40583197	     -1.47785927	     17.30015176	     12.45688365	     48.47610957	    -38.60878685	      2.81959322	     -8.09629823
      1.21500000	     24.56991201	     -2.61196637	      2.23349524	     -0.54464927	      0.83914788	     -0.06889468	    -44.45010476	      7.70936551	    -16.48011769	     -4.47350622	     27.96022538	     18.93542298	     38.53092564	     -6.03903972	      0.35457205	    -15.46517070	     -2.32247357	     16.90145776	     12.35904878	     48.51974749	    -38.63377008	      2.75708617	     -8.08814566
      1.22000000	     24.65207875	     -2.65441485	      2.12367090	     -0.53851389	      0.83896565	     -0.06867641	    -44.51524502	      7.50067754	    -16.27682902	     -5.62298237	     28.02346426	     19.09072892	     38.83140434	     -6.08632668	      0.30201915	    -15.46457387	     -3.24921143	     16.42594659	     12.15982955	     48.57636155	    -38.67139267	      2.66847983	     -8.06533583
      1.22500000	     24.74248846	     -2.67773876	      2.06009768	     -0.53238484	      0.83887804	     -0.06858746	    -44.54930052	      7.29426353	    -16.18457660	     -6.82350680	     27.80094841	     19.19531964	     41.22409828	     -6.15698472	      0.26949398	    -15.25234063	     -4.14766226	     15.72422398	     11.59539169	     49.52576173	    -38.72127018	      2.59722193	     -8.09876534
      1.23000000	     24.80382010	     -2.68176305	      1.99752443	     -0.52626737	      0.83879569	     -0.06844566	    -44.47994712	      7.06240015	    -16.10977509	     -8.21046317	     27.85029820	     19.39258587	     41.54408217	     -6.12615099	      0.22467956	    -15.10321924	     -5.25353311	     15.20584322	     11.22333079	     49.61010341	    -38.74735909	      2.49742688	     -8.15585678
      1.23500000	     24.84915007	     -2.65606689	      1.95100425	     -0.52011374	      0.83877802	     -0.06839087	    -44.31840184	      6.79243354	    -16.16875938	     -9.77131966	     27.77384084	     19.62802260	     42.31746513	     -6.10879269	      0.22136217	    -14.80389915	     -6.29867051	     14.60907997	     10.55643132	     49.80084198	    -38.75228924	      2.38275636	     -8.24503842
      1.24000000	     24.91478088	     -2.63515874	      1.81440664	     -0.51396692	      0.83889421	     -0.06814276	    -44.11989412	      6.46675123	    -16.05422523	    -11.45885551	     27.76946502	     19.66672016	     42.73260257	     -6.11471457	      0.19333730	    -14.71645334	     -7.39226039	     14.03480998	     10.18763966	     49.85325776	    -38.78801686	      2.21135707	     -8.25204620
      1.24500000	     24.98039483	     -2.58159858	      1.81818108	     -0.50784716	      0.83903755	     -0.06816390	    -43.88471758	      6.19097376	    -16.20789691	    -13.17221353	     27.30054451	     19.69408063	     46.01095095	     -6.10604059	      0.20110716	    -14.28484202	     -8.48696227	     13.38456289	      9.31270719	     50.70614393	    -38.82488825	      2.09820386	     -8.35686585
